<svg viewBox="0 0 1000 1000" xmlns="http://www.w3.org/2000/svg" xmlns:xlink="http://www.w3.org/1999/xlink"><clipPath id="a"><path d="m639.49 659.38c-4.43-29-13.38-64.52-33-105.91a238.16 238.16 0 0 0 -20.65-35.76c-45.3-63.83-94-49-94-49s-44.44 13.81-46.3 41.07c0 0 19.82 12.74 57.33 53.6 18.33 20.31 70.64 82.77 67.65 130.86a74 74 0 0 0 34.11 8.09 83.35 83.35 0 0 0 38.54-9.71c-.74-9.87-1.81-20.97-3.68-33.24z"/></clipPath><path d="m537.68 332.84s95 73.06 185.08-12.18 286.55 92.54 151 240.28 108.76 105.53 38.14 216.74-380.71 17-486.24-77.93-253.26 16.25-280.05-108.75 164-71.43 144.49-256.51 155.04-152.64 247.58-1.65z" fill="#c2d2f9"/><path d="m396.34 805.54s-284.06 4.46-266.88-20.14 414.17-37 414.17-37z" fill="#161616"/><path d="m604.78 256.76h210.63v512.21h-210.63z" fill="#508def"/><g stroke="#fff" stroke-miterlimit="10" stroke-width="1.26"><path d="m626 279.51h71.03v218.36h-71.03z" fill="#508def"/><path d="m715.22 279.51h71.03v218.36h-71.03z" fill="none"/><g fill="#508def"><path d="m626 519.68h71.03v218.36h-71.03z"/><path d="m715.22 519.68h71.03v218.36h-71.03z"/></g></g><path d="m584.15 768.92-181.51 28.38v-613.39l181.51 70.85z" fill="#0b539b"/><path d="m815.41 256.76v512.24h-210.19v-512.24zm12.29-12.52h-234.76v537.25h234.76z" fill="#77adfc"/><path d="m819.3 244.24h-226.3v537.25h143.12c-5.28-21.08-50.59-6.7-71.26-63-27.11-73.8 54.15-138.75 12.69-261.69-48.55-143.8 110.54-192.94 141.75-212.56z" fill="#0f59b2" opacity=".33"/><g stroke="#161616" stroke-miterlimit="10" stroke-width="1.26"><path d="m815.41 256.76v512.24h-210.19v-512.24zm12.29-12.52h-234.76v537.25h234.76z" fill="none"/><path d="m408.91 190 171.46 63.21v517l-171.46 21.12zm-12.57-18v633.54l14.11-1.74 171.46-21.11 11-1.36v-536.9l-8.22-3-171.43-63.25z" fill="#508def"/><path d="m461.85 361s-7.57-45.93 17.64-56 23 52.65 14.29 56-31.93 0-31.93 0z" fill="#f98506" stroke-linecap="round"/><path d="m499.76 355.57s-48-41.35-20.27-50.6 87.66 31.37 95.5 64.69-75.23-14.09-75.23-14.09z" fill="#f7c908" stroke-linecap="round"/><path d="m480.35 525s-27.83 25.16-44.36 16.2 16.34-34.3 16.34-34.3z" fill="#161616"/></g><path d="m543.63 477c-49.26-10.8-104.49 13.58-98.11 43.24 41.12 35.7 29.38 90.13-35.85 87.76v79.82c59.27-7.65 102.64-19 134-32.36 135.28-57.75 46.21-153.37 46.21-153.37-12.88-13.44-29.2-21.38-46.25-25.09z" fill="#450470"/><path d="m409.67 634.32c39.23-2 66.79-14 81.92-35.7 23-33 9-75.84 8.38-77.65l-3.57 1.2c.14.43 14 42.93-7.91 74.32-14.42 20.66-40.93 32.1-78.82 34.06z" fill="#af0b65"/><path d="m515.63 606.14c-20.34 30.17-56.9 47.42-106 50.11v3.75c63.52-3.41 94.41-29.93 109.2-52 16.58-24.69 17-48.58 17-49.58h-3.77c.09.27-.4 23.95-16.43 47.72z" fill="#af0b65"/><path d="m589.84 502.06-.33-.32c-36.86-28.26-88.31-24.31-109.16-15.54-32.88 13.8-29.74 38.8-29.74 38.8s25.58 14.65 26 60.51 68.24 38.53 46.29 61.57-58.6 31.76-59 31.85c32.66-6.61 58.87-14.61 79.72-23.51 135.29-57.74 46.22-153.36 46.22-153.36z" fill="#161616" opacity=".65"/><path d="m543.63 477c-49.26-10.8-104.49 13.58-98.11 43.24 41.12 35.7 29.38 90.13-35.85 87.76v79.82c59.27-7.65 102.64-19 134-32.36 135.28-57.75 46.21-153.37 46.21-153.37-12.88-13.44-29.2-21.38-46.25-25.09z" fill="none" stroke="#161616" stroke-miterlimit="10" stroke-width="1.26"/><path d="m517.42 357.52a78.91 78.91 0 0 0 -7.26-14.36c-1.26-1.5-16.52-22-5.46-24.33a22 22 0 0 1 18.5 4.34c-2.2.05-17.28 1.52-9.11 8.43s20.57 8.59 19.91 18.4-16.58 7.52-16.58 7.52z" fill="#f98506"/><g clip-path="url(#a)"><path d="m639.49 659.38c-4.43-29-13.38-64.52-33-105.91a238.16 238.16 0 0 0 -20.65-35.76c-45.3-63.83-94-49-94-49s-44.44 13.81-46.3 41.07c0 0 19.82 12.74 57.33 53.6 18.33 20.31 70.64 82.77 67.65 130.86a74 74 0 0 0 34.11 8.09 83.35 83.35 0 0 0 38.54-9.71c-.74-9.87-1.81-20.97-3.68-33.24z" fill="#640db7"/></g><path d="m614.41 701.69c-14.36-68.48-46.6-121.33-71.33-153.77-27.2-35.69-51.46-55.13-51.7-55.32l-2.38 2.95c.24.19 24.2 19.4 51.13 54.75 24.41 32.06 56.24 84.23 70.48 151.78 1.3-.08 2.55-.24 3.8-.39z" fill="#db1679"/><path d="m630 698.19c-14.53-66.86-43.61-120.55-65.8-154.21-24.83-37.67-46.68-59.12-46.9-59.34l-2.63 2.7c.85.83 83.76 82.86 111.71 212 1.28-.4 2.49-.77 3.62-1.15z" fill="#db1679"/><path d="m604.61 702.33a83.35 83.35 0 0 0 38.54-9.71c-.4-5.86-44.43 17.11-51.55-20.6s-41.48-91.75-82.54-133.65c-33.14-33.82 30.31-42.54 56-44.64a118.4 118.4 0 0 0 -9.52-8c-37.23-9.14-88.49.17-109.86 22.4-.07.55-.16 1.1-.19 1.66 0 0 19.82 12.74 57.33 53.6 18.33 20.31 70.64 82.77 67.65 130.86a74 74 0 0 0 34.14 8.08z" fill="#161616" opacity=".4"/><path d="m602.24 545q-2.61-5.06-5.27-9.7" fill="none" stroke="#161616" stroke-linecap="round" stroke-miterlimit="10" stroke-width="1.26"/><path d="m491.82 468.71s-44.44 13.81-46.3 41.07c0 0 19.82 12.74 57.33 53.6 18.33 20.31 70.64 82.77 67.65 130.86a74 74 0 0 0 34.11 8.09 83.35 83.35 0 0 0 38.54-9.71c-.72-9.87-1.79-21-3.66-33.24-4.43-29-13.38-64.52-33-105.91" fill="none" stroke="#161616" stroke-linecap="round" stroke-miterlimit="10" stroke-width="1.26"/><path d="m566.81 409.41c8.18-40.3-12.75-58.29-12.76-58.3-5.67-1.18-15.93-5.05-15.93-5.05-4.3-2.25-3.89-.51-11.61-1.28l.22-.31a157.9 157.9 0 0 0 -16.57-1.31c.4.63.81 1.3 1.23 2-1.21.17-2.43.37-3.67.62 5.75 7.82 13.72 30.7.71 43-15 14.17-20.87 68.05 3.95 103 25.24-2.88 50.56 2.33 68.29 10.29-8.78-12.56-24.52-43.34-13.86-92.66z" fill="#fff"/><path d="m538.08 361.45s-21.66-19.36-14.42-1.35c5.83 17.85-6.43 18.17-10 6.93s-9.46-27.95 13.11-22.56c11.52 7.24 11.31 16.98 11.31 16.98z" fill="#c2d2f9"/><path d="m572 486.24c-6.2-2.95-15.07-3.75-30.23-8.52-28-8.8-17.44-49.89-14.77-71.81 4.71-38.52-6.82-53.4-11.08-62.48q-2.62-.17-5.73-.27c.4.63.81 1.3 1.23 2-1.21.17-2.43.37-3.67.62 5.75 7.82 13.72 30.7.71 43-15 14.17-20.87 68.05 3.95 103 25.24-2.88 50.56 2.33 68.29 10.29a88.89 88.89 0 0 1 -8.7-15.83z" fill="#c2d2f9"/><path d="m566.81 409.41c8.18-40.3-12.75-58.29-12.76-58.3-5.67-1.18-15.93-5.05-15.93-5.05-4.3-2.25-3.89-.51-11.61-1.28l.22-.31a157.9 157.9 0 0 0 -16.57-1.31c.4.63.81 1.3 1.23 2-1.21.17-2.43.37-3.67.62 5.75 7.82 13.72 30.7.71 43-15 14.17-20.87 68.05 3.95 103 25.24-2.88 50.56 2.33 68.29 10.29-8.78-12.56-24.52-43.34-13.86-92.66z" fill="none" stroke="#161616" stroke-miterlimit="10" stroke-width="1.26"/><path d="m525.64 344.32s11.73-36 17.33-39.91 17.93 3.17 19 11.39 3.55 26.7-12.88 30.06c.18 12.51 3.88 26 0 31.82s-17.29.06-23.45-33.36z" fill="#f96353"/><g stroke="#161616" stroke-miterlimit="10" stroke-width="1.26"><path d="m525.64 344.32s11.73-36 17.33-39.91 17.93 3.17 19 11.39 3.55 26.7-12.88 30.06c.18 12.51 3.88 26 0 31.82s-17.29.06-23.45-33.36z" fill="none"/><path d="m548.08 314a3.63 3.63 0 0 1 5-2c7.4 3.56 24.31 9.95 30.08-2.6 7.46-16.24-9.64-34.54-18.11-28s-6 15.49-19.42 12.88-21.22 5.15-11.27 27.78c3.8-3.32 5.11-10.61 8.28-9.3s-3.36 14.19-1.31 14.38c1.39.18 4.8-8.06 6.75-13.14z" fill="#161616"/><path d="m538.12 339.88s3.53 7.51 11 6" fill="none" stroke-linecap="round"/><path d="m549.14 345.86c-7.49 1.53-11-6-11-6-.62 3.55 1.78 13.09 11 14.66.22-3.75 0-8.66 0-8.66z" fill="#161616"/><path d="m478.94 422.79s-5.61-14.48.55-25.27" fill="none" stroke-linecap="round"/></g><path d="m493.17 343.39c-16.45 9-34.82 28-54 55.4-45.37 64.69-11.48 146.19-1.4 142.27 17.22-32.23 45.87-46 74.61-49.29-24.82-34.92-13.31-76.41-.21-92.33 16.94-20.57 5.4-44.66-2-56.28" fill="#f7c908"/><path d="m511.65 491.86c-11.85-17.36-52.6 12.1-67.95-6.7-25.48-44.19 20.53-93 46.93-106.74 19.05-9.91 14.69-26.61 10.8-35.14l-8.26.11c-16.45 9-34.82 28-54 55.4-45.37 64.69-11.48 146.19-1.4 142.27 17.08-31.95 45.38-45.77 73.88-49.2z" fill="#f98506"/><path d="m458.47 373.76c-6.31 7.33-12.76 15.7-19.3 25-45.37 64.69-11.48 146.19-1.4 142.27 17.22-32.23 45.87-46 74.61-49.29-24.82-34.92-13.31-76.41-.21-92.33 16.94-20.57 5.4-44.66-2-56.28" fill="none" stroke="#161616" stroke-linecap="round" stroke-miterlimit="10" stroke-width="1.26"/><path d="m698.94 429-.06.07z" fill="#f7c908" stroke="#161616" stroke-miterlimit="10" stroke-width="1.26"/><path d="m698.18 429.56c-2.84 1.51-7.58-1.43-12.43-7.11a67.11 67.11 0 0 1 -8.09-12.12c-.42-.78-.81-1.56-1.18-2.34-.14-.28-.27-.56-.4-.84-.23-.48-.45-1-.66-1.43s-.32-.71-.47-1.07-.31-.74-.45-1.1-.34-.84-.5-1.25c-.09-.23-.16-.45-.25-.67a55 55 0 0 1 -2.08-7c-.23-1.05-.42-2.06-.55-3q-3.18 2.43-6.42 5.35c-25 22.78-42.56 13.07-66.09-17.15-15.42-19.82-33.76-26.5-44.56-28.75 0 0 20.94 18 12.76 58.3-10.66 49.32 5.08 80.1 13.86 92.65 10.34 4.64 18.11 10.21 21.77 15.65 35.29-14.11-12.88-58.15-21-77.75 14.24 9.25 27 14.1 38.51 15.77 42.23 7.48 77.45-25.26 78.92-26.65a3.28 3.28 0 0 1 -.69.51z" fill="#f7c908"/><path d="m602.44 517.71c19.75-7.9 13.35-25.18 2.47-42.3s8 15.25 0 22.46-33.48-12.93-33.48-12.93a88.79 88.79 0 0 0 9.25 17.12c10.32 4.64 18.1 10.21 21.76 15.65z" fill="#f98506"/><path d="m698.18 429.56c-2.84 1.51-7.58-1.43-12.43-7.11a67.11 67.11 0 0 1 -8.09-12.12c-.42-.78-.81-1.56-1.18-2.34-.14-.28-.27-.56-.4-.84-.23-.48-.45-1-.66-1.43s-.32-.71-.47-1.07-.31-.74-.45-1.1-.34-.84-.5-1.25c-.09-.23-.16-.45-.25-.67a55 55 0 0 1 -2.08-7c-.23-1.05-.42-2.06-.55-3-.39.3-.79.63-1.19.95-7.46 11.57 6.6 50-11 41.8s-33.2 4.5-55 2-21.16-15.77-23.29-23.91c0 0-5.25 17.06.77 27.47 14.24 9.25 27 14.1 38.51 15.77 42.23 7.48 77.45-25.26 78.92-26.65a3.28 3.28 0 0 1 -.66.5z" fill="#f98506"/><path d="m554.05 351.11s20.94 18 12.76 58.3c-10.66 49.32 5.08 80.1 13.86 92.65 10.34 4.64 18.11 10.21 21.77 15.65 35.29-14.11-12.88-58.15-21-77.75 14.24 9.25 27 14.1 38.51 15.77 42.23 7.48 77.45-25.26 78.92-26.65a3.28 3.28 0 0 1 -.69.48c-2.84 1.51-7.58-1.43-12.43-7.11a67.11 67.11 0 0 1 -8.09-12.12c-.42-.78-.81-1.56-1.18-2.34-.14-.28-.27-.56-.4-.84-.23-.48-.45-1-.66-1.43s-.32-.71-.47-1.07-.31-.74-.45-1.1-.34-.84-.5-1.25c-.09-.23-.16-.45-.25-.67a55 55 0 0 1 -2.08-7c-.23-1.05-.42-2.06-.55-3q-3.18 2.43-6.42 5.35c-25 22.78-42.56 13.07-66.09-17.15a79 79 0 0 0 -29.52-23.77" fill="none" stroke="#161616" stroke-linecap="round" stroke-miterlimit="10" stroke-width="1.26"/><path d="m695.84 405.91c-1.26 2.39-2.71 5-4.34 7.72s-3.62 5.82-5.75 8.82c4.85 5.68 9.59 8.62 12.43 7.11a3.28 3.28 0 0 0 .69-.48l.06-.07c3.07-3.01 1.73-12.5-3.09-23.1z" fill="#161616" stroke="#161616" stroke-miterlimit="10" stroke-width="1.26"/><path d="m721.84 386.19c-6.38-9-22.22-11.22-40.7-1.1a79 79 0 0 0 -10 6.57c.13.95.32 2 .55 3a63.34 63.34 0 0 0 6 15.66 67.11 67.11 0 0 0 8.09 12.12c2.13-3 4-6 5.75-8.82s3.08-5.33 4.34-7.72c3.79-7.21 5.9-12.45 6.51-13.14 2.8-3.15 6.79 2.66 9 2s-2.8-2.61-.84-6.34 19.51 9.34 11.3-2.23z" fill="#f96353"/><path d="m713.09 387.84c-17.19-8.91-20.09 11.63-28.89 15-6 2.27-10.4-6-12.63-11.5l-.45.33c.13.95.32 2 .55 3a63.34 63.34 0 0 0 6 15.66 67.11 67.11 0 0 0 8.09 12.12c2.13-3 4-6 5.75-8.82s3.08-5.33 4.34-7.72c3.79-7.21 5.9-12.45 6.51-13.14 2.8-3.15 6.79 2.66 9 2s-2.8-2.61-.84-6.34c.39-.72 1.34-.81 2.57-.59z" fill="#e53e23"/><path d="m721.84 386.19c-6.38-9-22.22-11.22-40.7-1.1a79 79 0 0 0 -10 6.57c.13.95.32 2 .55 3a63.34 63.34 0 0 0 6 15.66 67.11 67.11 0 0 0 8.09 12.12c2.13-3 4-6 5.75-8.82s3.08-5.33 4.34-7.72c3.79-7.21 5.9-12.45 6.51-13.14 2.8-3.15 6.79 2.66 9 2s-2.8-2.61-.84-6.34 19.51 9.34 11.3-2.23z" fill="none" stroke="#161616" stroke-miterlimit="10" stroke-width="1.26"/><path d="m517.42 357.52a78.91 78.91 0 0 0 -7.26-14.36c-5-.16-10.76-.15-17 .24-25.17 1.54-57.4 9.16-70.24 36.46a44.49 44.49 0 0 0 -2.58 31.39 71.18 71.18 0 0 0 5 13.33c8.54 18 30.16 48.59 80.13 55.35 4.67.63 9.57 1.05 14.75 1.24-2.63-.4-4.11-6.22-4.15-14.62a100.36 100.36 0 0 1 1.21-15.43c1.29-8.49 3.37-16 5.65-21.05a139.77 139.77 0 0 0 -22.76-4.36l-.66-.07c-39-5-20.32-39.83-1.28-41.13" fill="#f7c908"/><path d="m520.18 481.17c-2.63-.4-4.11-6.22-4.15-14.62a100.36 100.36 0 0 1 1.21-15.43c1.29-8.49 3.37-16 5.65-21.05l-1.16-.32c-13.29-2.42-27.17 38-36.12 17.28-9.22-21.37-44.41-3.77-48.6-49.51s57.31-47.61 57.31-47.61c-1.39-2.26-4.91-4.43-6.6-6.09-24.79 1.87-52.33 9.58-64.78 36a44.49 44.49 0 0 0 -2.58 31.39 71.18 71.18 0 0 0 5 13.33c8.54 18 30.16 48.59 80.13 55.35 4.61.67 9.51 1.11 14.69 1.28z" fill="#f98506"/><g stroke="#161616" stroke-linecap="round" stroke-miterlimit="10" stroke-width="1.26"><path d="m473.7 345.84c-20.39 4-41.09 13.44-50.77 34a44.49 44.49 0 0 0 -2.58 31.39 71.18 71.18 0 0 0 5 13.33c8.54 18 30.16 48.59 80.13 55.35 4.67.63 9.57 1.05 14.75 1.24-2.63-.4-4.11-6.22-4.15-14.62a100.36 100.36 0 0 1 1.21-15.43c1.29-8.49 3.37-16 5.65-21.05a139.77 139.77 0 0 0 -22.76-4.36l-.66-.07c-39-5-20.32-39.83-1.28-41.13" fill="none"/><path d="m517.42 357.52a78.91 78.91 0 0 0 -7.26-14.36c-1.26-1.5-16.52-22-5.46-24.33a22 22 0 0 1 18.5 4.34" fill="none"/><path d="m522.35 465.9q-3.18.42-6.32.65c0 8.4 1.52 14.22 4.15 14.62 3 .46 6.69-6.34 9.38-16.45-2.41.48-4.82.87-7.21 1.18z" fill="#161616"/></g><path d="m532.94 433.61a90.36 90.36 0 0 0 -10.05-3.54c-2.28 5.07-4.36 12.56-5.65 21.05a100.36 100.36 0 0 0 -1.24 15.43q3.13-.23 6.32-.65c2.39-.31 4.8-.7 7.21-1.18a109.87 109.87 0 0 0 11-2.78c6 .7 2.24 14.8 8.4 13.12s3.92-16.25 6.16-14 4.11 7.28 4.11 3.55c.02-2.84-.32-20.01-26.26-31z" fill="#f96353"/><path d="m525.64 452.63c-5.84 1.73-3.66-14.63-2.31-22.42l-.44-.14c-2.28 5.07-4.36 12.56-5.65 21.05a100.36 100.36 0 0 0 -1.24 15.43q3.13-.23 6.32-.65c2.39-.31 4.8-.7 7.21-1.18a109.87 109.87 0 0 0 11-2.78c6 .7 2.24 14.8 8.4 13.12 7.85-20.26-15.67-24.68-23.29-22.43z" fill="#e53e23"/><path d="m532.94 433.61a90.36 90.36 0 0 0 -10.05-3.54c-2.28 5.07-4.36 12.56-5.65 21.05a100.36 100.36 0 0 0 -1.24 15.43q3.13-.23 6.32-.65c2.39-.31 4.8-.7 7.21-1.18a109.87 109.87 0 0 0 11-2.78c6 .7 2.24 14.8 8.4 13.12s3.92-16.25 6.16-14 4.11 7.28 4.11 3.55c.02-2.84-.32-20.01-26.26-31z" fill="none" stroke="#161616" stroke-linecap="round" stroke-miterlimit="10" stroke-width="1.26"/><path d="m487.71 343.82c-2-1.34 29.81 23.47 18.67 46.47 0-11.76-16.34-44.15-47.58-31.25 5.43-5.23 28.91-15.22 28.91-15.22z" fill="#f98506"/><path d="m487.71 343.82c-2-1.34 29.81 23.47 18.67 46.47" fill="none" stroke="#161616" stroke-linecap="round" stroke-miterlimit="10" stroke-width="1.26"/><path d="m568.87 355.4s11.31 19.79 4.16 39.19" fill="none" stroke="#161616" stroke-linecap="round" stroke-miterlimit="10" stroke-width="1.26"/><path d="m650.14 743.91c-5.54-8.15-5.11-25.56-7-51.29a83.35 83.35 0 0 1 -38.54 9.71 296 296 0 0 1 21 52.12c.56-.34.89-.52.89-.52s17.67 1.95 23.65-10.02z" fill="#f96353"/><path d="m625.57 712.24c6.72-4.14 11.09-11.61 13.72-17.68a84 84 0 0 1 -34.68 7.77 296 296 0 0 1 21 52.12c.56-.34.89-.52.89-.52s17.7 2 23.68-10c-16.08 14.88-37.18-23.93-24.61-31.69z" fill="#e53e23"/><path d="m650.14 743.91c-5.54-8.15-5.11-25.56-7-51.29a83.35 83.35 0 0 1 -38.54 9.71 296 296 0 0 1 21 52.12c.56-.34.89-.52.89-.52s17.67 1.95 23.65-10.02z" fill="none" stroke="#161616" stroke-miterlimit="10" stroke-width="1.26"/><path d="m697.57 751.38c-9.71 0-34.73 11.2-47.43-7.47-6 12-23.68 10-23.68 10s-.33.18-.89.52a215.74 215.74 0 0 1 6.28 28.66c14.93.77 69.08-24.99 65.72-31.71z" fill="#f7c908"/><path d="m626.46 753.93s-.33.18-.89.52a215.74 215.74 0 0 1 6.28 28.66c14.93.75 69.08-25 65.72-31.73a29.36 29.36 0 0 0 -4.72.51 141 141 0 0 1 -29.85 16.11c-26 10.26-30.67-14.05-30.67-14.05a33.32 33.32 0 0 1 -5.87-.02z" fill="#f98506"/><g stroke-miterlimit="10" stroke-width="1.26"><path d="m697.57 751.38c-9.71 0-34.73 11.2-47.43-7.47-6 12-23.68 10-23.68 10s-.33.18-.89.52a215.74 215.74 0 0 1 6.28 28.66c14.93.77 69.08-24.99 65.72-31.71z" fill="none" stroke="#161616"/><path d="m580.67 412.49s-5.25 17.06.77 27.47" fill="none" stroke="#161616" stroke-linecap="round"/><ellipse cx="552.01" cy="321.7" fill="#fff" rx="1.54" ry="4.1" stroke="#161515" transform="matrix(.131 -.991 .991 .131 160.98 826.98)"/></g><path d="m553.65 320.47c1.5.42 2.51 1.12 2.43 1.77s-1.25 1.06-2.8 1.08a1.44 1.44 0 1 1 .37-2.85z" fill="#161515"/><ellipse cx="564.86" cy="323.64" fill="#fff" rx="1.54" ry="4.1" stroke="#161515" stroke-miterlimit="10" stroke-width="1.26" transform="matrix(.131 -.991 .991 .131 170.23 841.4)"/><path d="m566.5 322.41c1.5.42 2.51 1.11 2.43 1.76s-1.25 1.06-2.8 1.08c-.82-.33-1.35-1-1.27-1.61a1.7 1.7 0 0 1 1.64-1.23z" fill="#161515"/><path d="m558.4 323.64c.31 1.66 2.43 4 3.47 5.76 1.79 3.08-2.59 2.57-5.11 1.84" fill="none" stroke="#161616" stroke-linecap="round" stroke-miterlimit="10" stroke-width="1.26"/><circle cx="553.18" cy="336.7" fill="#161515" r="2.9" stroke="#161515" stroke-linecap="round" stroke-miterlimit="10" stroke-width="1.26"/><path d="m650.14 743.91c-2.91-4.28-4.16-11.13-5-20.37-13.47 12-28 6.5-28 6.5l-.39-1a266.38 266.38 0 0 1 8.77 25.37c.56-.34.89-.52.89-.52s17.75 1.99 23.73-9.98z" fill="#fff"/><path d="m624.27 731.26a24.87 24.87 0 0 1 -7.08-1.22l-.39-1q2.52 6.28 4.72 12.61c.11.33.21.65.32 1 .61 1.79 1.21 3.57 1.78 5.36q1 3.21 2 6.43c.56-.34.89-.52.89-.52s17.7 2 23.68-10c-9.61 8.87-20.97-1.33-25.92-12.66z" fill="#c2d2f9"/><path d="m650.14 743.91c-2.91-4.28-4.16-11.13-5-20.37-13.47 12-28 6.5-28 6.5l-.39-1a266.38 266.38 0 0 1 8.77 25.37c.56-.34.89-.52.89-.52s17.75 1.99 23.73-9.98z" fill="none" stroke="#161616" stroke-miterlimit="10" stroke-width="1.26"/><rect fill="#fff" height="64.85" rx="5.48" stroke="#161616" stroke-miterlimit="10" stroke-width="1.26" width="18.3" x="792.94" y="471.22"/><circle cx="802.09" cy="516.35" fill="#161616" r="2.71"/><rect fill="#161616" height="5.64" rx=".9" width="1.81" x="801.18" y="517.47"/><path d="m802.23 489.72a9 9 0 0 0 -7.76 4.46h-16.89a4.55 4.55 0 1 0 0 9.1h16.89a9 9 0 1 0 7.76-13.56z" fill="#0f59b2" opacity=".42"/><g stroke="#161616" stroke-miterlimit="10" stroke-width="1.26"><path d="m802.23 485.63a9 9 0 0 0 -7.76 4.46h-16.89a4.55 4.55 0 1 0 0 9.1h16.89a9 9 0 1 0 7.76-13.56z" fill="#fff"/><g fill="none" stroke-linecap="round"><path d="m661.64 748.38s-7 .84-7.4 8"/><path d="m667.06 749.77s-7 .84-7.4 8"/><path d="m672 752.36s-7 .84-7.4 8"/></g></g><circle cx="641.57" cy="763.52" fill="#fff" opacity=".56" r="6.49"/><g fill="#161616"><path d="m667.66 747.11s5.22-4.58 7.18-2-7.18 2-7.18 2z"/><path d="m667.66 747.11s-2.59-6.45-5.5-5 5.5 5 5.5 5z"/><path d="m551.3 790.54s106.37-5.2 149.42 1.3c37.39 5.64-74.91-.53-77.86 9.74s-118.23 1.18-71.56-11.04z"/><path d="m717.07 793.09s16.7-2.82 19.93 0-29.07 1.09-19.93 0z"/></g><path d="m693.16 370.25s27.7-3.2 34.92 15.37" fill="none" stroke="#161616" stroke-linecap="round" stroke-miterlimit="10" stroke-width="1.26"/><g fill="#fff"><path d="m634.76 415.19s16.34.3 21-5 8.15-5.94 10.06-1.89-7.23 7.07-15.56 9.66-6.75 11.61-15.55 6.32-5.26-8.92.05-9.09z"/><path d="m652 420.53s8.48-4.4 7.23 0-15.67 4.4-7.23 0z"/><path d="m479.49 381.53s-16.52 7.05-16.73 19.2 5.45-7.46 11.32-9.6 13.88-5.9 13.54-7.79-3.08-4.56-8.13-1.81z"/><path d="m470.87 399.47s-4.54 5.45-1.19 6.08 6.09-8.17 1.19-6.08z"/></g><g fill="none" stroke="#fff" stroke-linecap="round" stroke-miterlimit="10" stroke-width="1.26"><path d="m631.67 650.59q1.08 6.66 1.8 13.47"/><path d="m580.37 521.57s35.36 51.1 49 116.85"/><path d="m414.48 681s17.06.63 41.37-6.28"/><path d="m590.66 464.72a39.75 39.75 0 0 0 6.31 6.71c11 9 14.85 24.83 9.51 33.94"/><path d="m578.55 442.24a106.16 106.16 0 0 0 5.6 12.19"/><path d="m491.46 308.66s-14.58-.47-13.41 9.66 9.58 15.48 9.58 15.48"/></g><g fill="#fff"><path d="m799.38 295.75s-30.79 12.56-22 61.9-12 69.79-1.59 82.19 26.65-27.33 23.55-66.54 20.11-92 .04-77.55z"/><path d="m766.74 451.71s-15.09 8.27-7.55 16.34 22-14.98 7.55-16.34z"/><path d="m803 699.29a40.75 40.75 0 0 0 -3.61 25.21c2.55 14.35-11.4 17.4-9.14 26.88s15.59-.3 17.41-12.39-1.82-47.24-4.66-39.7z"/><path d="m772.84 751.38s-8.3-5.08-9.72 0 10.79 13.33 9.72 0z"/></g><g fill="none" stroke="#161616" stroke-miterlimit="10" stroke-width="1.26"><path d="m632.57 388.69v-100.46h48.07"/><path d="m632.57 604.1v-73.9h15.49"/><path d="m722.11 293.31v39.86"/><path d="m721.49 536.08v102.34"/></g><path d="m100.14 797.3s-42.74-4-16.76-15.81 51.11 14.97 16.76 15.81z" fill="#161616"/><g fill="none" stroke="#161616" stroke-linecap="round" stroke-miterlimit="10" stroke-width="1.26"><path d="m823.3 224.13s16.76-1.68 12.57 60.33"/><path d="m388.4 434.41v136.64"/></g></svg>